<?xml version="1.0" encoding="UTF-8"?>
<svg id="Layer_1" data-name="Layer 1" xmlns="http://www.w3.org/2000/svg" viewBox="0 0 46 46">
  <defs>
    <style>
      .cls-1 {
        fill: #ffa944;
      }
    </style>
  </defs>
  <path class="cls-1" d="m23,0C10.3,0,0,10.3,0,23s10.3,23,23,23,23-10.3,23-23S35.7,0,23,0Zm0,2c9.49,0,17.53,6.34,20.12,15h-2.1c-.72-2.15-1.82-4.13-3.21-5.86-1.31.61-2.76,1.14-4.35,1.56.43,1.36.79,2.79,1.04,4.29h-2.02c-.24-1.35-.57-2.63-.96-3.84-2.35.48-4.9.76-7.52.82v3.02h-2v-3.02c-2.61-.06-5.16-.33-7.52-.82-.39,1.21-.72,2.49-.96,3.84h-2.02c.25-1.51.61-2.94,1.04-4.3-1.59-.42-3.05-.95-4.36-1.56-1.39,1.73-2.48,3.71-3.2,5.86h-2.1C5.47,8.34,13.51,2,23,2Zm-1,2.1c-1.24.24-2.45.93-3.58,2.06-1.28,1.28-2.37,3.04-3.23,5.1,2.14.42,4.44.66,6.82.71v-7.87Zm2,0v7.87c2.37-.05,4.68-.29,6.82-.71-.87-2.08-1.97-3.85-3.28-5.14-1.12-1.11-2.31-1.78-3.54-2.02Zm-7.29.98c-2.7.95-5.13,2.51-7.12,4.5,1.11.48,2.32.9,3.63,1.24.92-2.28,2.09-4.25,3.48-5.74Zm12.58,0c1.39,1.49,2.57,3.46,3.49,5.74,1.31-.34,2.53-.76,3.64-1.24-1.99-1.99-4.42-3.54-7.12-4.5ZM2,19h2.1l1.53,5.49,1.86-5.49h2.44l1.78,5.59,1.56-5.59h2.06l-2.46,8h-2.18l-2.02-5.98-2.02,5.98h-2.22l-2.43-8Zm14.34,0h2.1l1.53,5.49,1.86-5.49h2.44l1.78,5.59,1.56-5.59h2.06l-2.46,8h-2.18l-2.02-5.98-2.02,5.98h-2.22l-2.42-8Zm14.29,0h2.11l1.54,5.49,1.86-5.49h2.45l1.79,5.59,1.56-5.59h2.07l-2.48,8h-2.18l-2.03-5.98-2.02,5.98h-2.23l-2.43-8Zm1.86,10h2.02c-.25,1.51-.61,2.94-1.04,4.3,1.59.42,3.05.95,4.36,1.56,1.39-1.73,2.49-3.71,3.2-5.86h2.1c-2.59,8.66-10.62,15-20.12,15S5.47,37.66,2.88,29h2.1c.72,2.15,1.82,4.13,3.21,5.86,1.31-.61,2.76-1.14,4.35-1.56-.43-1.36-.79-2.79-1.04-4.29h2.02c.24,1.35.57,2.63.96,3.84,2.35-.48,4.9-.76,7.52-.82v-3.02h2v3.02c2.61.06,5.16.33,7.52.82.39-1.21.72-2.49.96-3.84Zm-10.48,5.03c-2.36.06-4.66.29-6.78.71,1.65,3.91,4.07,6.62,6.78,7.16v-7.87Zm2,0v7.87c1.24-.24,2.45-.93,3.58-2.06,1.28-1.28,2.37-3.03,3.23-5.09-2.14-.42-4.44-.66-6.82-.71Zm8.78,1.16c-.92,2.28-2.09,4.25-3.48,5.74,2.71-.95,5.13-2.51,7.12-4.5-1.11-.48-2.32-.9-3.63-1.24Zm-19.58,0c-1.3.34-2.51.75-3.61,1.23,1.97,1.97,4.38,3.52,7.06,4.48-1.37-1.47-2.53-3.42-3.46-5.71Z"/>
</svg>